# xmcd
#
# Track frame offsets: 
#        150
#        17614
#        37217
#        54437
#        66171
#        88986
#        114059
#        137363
#        157945
#        177993
#        196129
#        215892
#        235009
#        248988
#
# Disc length: 3512 seconds
#
# Revision: 0
# Processed by: cddbd v1.5.2PL0 Copyright (c) Steve Scherf et al.
# Submitted via: ExactAudioCopyFreeDBPlugin 1.0
#
DISCID=bb0db60e
DTITLE=The Cadillac Kings - The Secret of my Success
DYEAR=2016
DGENRE=R&B
TTITLE0=For Richer, For Poorer
TTITLE1=Five Won't Getcha Ten
TTITLE2=Wasted
TTITLE3=Cadillac Shake
TTITLE4=I Ain't Gonna Miss Ya
TTITLE5=In The Night
TTITLE6=Left Handed Woman
TTITLE7=Flatfoot Sam
TTITLE8=One Step Forward
TTITLE9=The Secret Of My Success
TTITLE10=Stalkin' Blues
TTITLE11=Everybody's Out
TTITLE12=No Good Woman
TTITLE13=Soleil de la Louisiane 
EXTD=
EXTT0=
EXTT1=
EXTT2=
EXTT3=
EXTT4=
EXTT5=
EXTT6=
EXTT7=
EXTT8=
EXTT9=
EXTT10=
EXTT11=
EXTT12=
EXTT13=
PLAYORDER=
